<svg width="867" height="336" viewBox="0 0 867 336" fill="none" xmlns="http://www.w3.org/2000/svg">
<path d="M291.658 102.491V277.042C291.65 284.755 288.729 292.149 283.537 297.603C278.344 303.057 271.304 306.125 263.96 306.134H70.0727C51.7141 306.111 34.1135 298.442 21.132 284.807C8.15048 271.172 0.848224 252.686 0.827148 233.404L0.827148 58.8533C0.835396 51.1403 3.75624 43.7457 8.94888 38.2918C14.1415 32.8379 21.1819 29.7701 28.5254 29.7615H222.413C240.771 29.7836 258.372 37.4533 271.354 51.0879C284.335 64.7225 291.637 83.2087 291.658 102.491ZM409.404 68.0917C407.305 66.8132 404.924 66.1357 402.498 66.1271C400.072 66.1185 397.687 66.779 395.58 68.0426L326.335 109.602C324.215 110.874 322.453 112.713 321.228 114.931C320.002 117.148 319.357 119.667 319.357 122.232V213.663C319.357 216.228 320.002 218.747 321.228 220.965C322.453 223.182 324.215 225.021 326.335 226.293L395.58 267.852C397.687 269.116 400.072 269.777 402.498 269.769C404.923 269.76 407.305 269.083 409.403 267.804C411.501 266.525 413.242 264.69 414.453 262.482C415.663 260.274 416.3 257.771 416.3 255.223V80.6721C416.301 78.1244 415.664 75.6213 414.453 73.4134C413.243 71.2055 411.502 69.3704 409.404 68.0917Z" fill="url(#paint0_linear)"/>
<path d="M42.304 261L75.136 85.896L78.304 70.92H139.936L103.648 261H42.304ZM220.576 244.008C215.392 259.176 202.816 266.76 182.848 266.76C168.064 266.76 155.584 257.928 145.408 240.264C135.04 222.6 128.896 199.368 126.976 170.568C148.096 131.976 165.952 104.712 180.544 88.776C194.56 73.608 208.864 66.024 223.456 66.024C231.328 66.024 238.048 68.136 243.616 72.36C249.376 76.584 252.928 82.056 254.272 88.776C247.744 91.464 242.944 93.864 239.872 95.976C232.192 101.736 223.168 111.048 212.8 123.912L186.592 155.304C182.368 160.296 179.392 163.944 177.664 166.248C180.544 182.376 186.304 198.408 194.944 214.344C203.2 229.512 211.744 239.4 220.576 244.008Z" fill="#333333"/>
<path d="M398.251 219.736C396.08 229.728 388.857 235.829 376.58 238.038C370.255 239.176 364.718 237.932 359.969 234.306C355.929 231.064 353.563 227.521 352.871 223.677C351.064 213.633 350.691 198.401 351.753 177.982L352.142 140.657L389.233 130.141L388.464 190.963C388.007 200.519 388.069 206.909 388.649 210.133C389.921 217.202 393.122 220.402 398.251 219.736ZM350.837 114.199C349.967 109.362 351.281 105.285 354.781 101.967C358.404 98.6262 363.13 96.4314 368.959 95.3826C374.787 94.3337 379.672 94.7989 383.613 96.7782C387.678 98.7352 390.145 102.132 391.015 106.968C391.886 111.804 390.56 115.82 387.038 119.014C383.64 122.186 379.027 124.296 373.199 125.345C367.37 126.394 362.373 126.013 358.206 124.203C354.164 122.37 351.707 119.035 350.837 114.199Z" fill="#333333"/>
<path d="M533 225C516.867 225 508.8 218.733 508.8 206.2C508.933 202.733 509.533 198.067 510.6 192.2L514.2 173.8C517.8 156.467 519.6 145.867 519.6 142C519.6 134.267 517.333 130.4 512.8 130.4C505.2 130.4 499.4 140.333 495.4 160.2L483.6 221L443.4 225L464.2 118.8L497 115L493.8 134.6C500.067 121.533 512.8 115 532 115C541.333 115 547.933 117 551.8 121C555.8 124.867 557.8 131.2 557.8 140C557.8 148.267 555.667 162.067 551.4 181.4C549.4 190.067 548.4 196.067 548.4 199.4C548.4 202.6 549.267 205.133 551 207C552.867 208.867 555.133 209.933 557.8 210.2C556.467 214.733 553.467 218.333 548.8 221C544.267 223.667 539 225 533 225ZM654.791 187.2C658.124 189.467 659.791 193.133 659.791 198.2C659.791 203.133 658.524 207.2 655.991 210.4C653.457 213.6 650.124 216.267 645.991 218.4C637.457 222.8 628.591 225 619.391 225C610.191 225 602.857 224 597.391 222C592.057 220 587.591 217.133 583.991 213.4C576.924 206.333 573.391 196.333 573.391 183.4C573.391 163.267 578.857 147.067 589.791 134.8C601.524 121.6 617.591 115 637.991 115C650.657 115 660.124 117.667 666.391 123C671.057 127 673.391 132.267 673.391 138.8C673.391 162.267 653.124 174 612.591 174C612.057 177.467 611.791 180.667 611.791 183.6C611.791 189.733 613.124 194 615.791 196.4C618.591 198.667 622.524 199.8 627.591 199.8C632.657 199.8 637.857 198.667 643.191 196.4C648.657 194 652.524 190.933 654.791 187.2ZM613.991 165.4C623.457 165.4 630.924 162.467 636.391 156.6C641.857 151 644.591 143.733 644.591 134.8C644.591 131.733 643.991 129.4 642.791 127.8C641.724 126.067 640.057 125.2 637.791 125.2C635.524 125.2 633.391 125.667 631.391 126.6C629.524 127.4 627.591 129.267 625.591 132.2C620.657 138.867 616.791 149.933 613.991 165.4ZM667.391 67.2C672.191 69.0667 674.591 73.4667 674.591 80.4C674.591 86.2667 671.791 91.0667 666.191 94.8C661.524 98 655.791 100.2 648.991 101.4L624.391 106L620.191 96.4L667.391 67.2ZM683.436 201C683.436 197.4 684.369 191.067 686.236 182L696.836 128H685.036L685.836 122C701.836 117.2 717.569 108.933 733.036 97.2H742.636L737.836 119H753.436L751.636 128H736.236L726.036 182C724.303 190.267 723.436 195.8 723.436 198.6C723.436 205 726.236 208.867 731.836 210.2C730.503 214.733 727.436 218.333 722.636 221C717.836 223.667 712.036 225 705.236 225C698.436 225 693.103 222.867 689.236 218.6C685.369 214.333 683.436 208.467 683.436 201ZM795.32 225C765.987 225 751.32 211.2 751.32 183.6C751.32 164 756.72 147.867 767.52 135.2C778.987 121.733 794.654 115 814.52 115C828.92 115 839.787 118.333 847.12 125C854.454 131.667 858.12 142 858.12 156C858.12 177.333 852.387 194.2 840.92 206.6C829.72 218.867 814.52 225 795.32 225ZM800.52 138C798.92 141.6 797.454 146.133 796.12 151.6C794.92 156.933 793.52 163.867 791.92 172.4C790.32 180.933 789.52 190.467 789.52 201C789.52 204.467 790.054 207.333 791.12 209.6C792.32 211.867 794.454 213 797.52 213C800.587 213 803.054 212.267 804.92 210.8C806.92 209.333 808.654 206.867 810.12 203.4C812.787 197.267 815.187 188.533 817.32 177.2C819.454 165.733 820.587 157.533 820.72 152.6C820.987 147.667 821.12 143.4 821.12 139.8C821.12 136.067 820.587 133 819.52 130.6C818.454 128.2 816.387 127 813.32 127C810.387 127 807.92 127.933 805.92 129.8C803.92 131.667 802.12 134.4 800.52 138Z" fill="#333333"/>
<defs>
<linearGradient id="paint0_linear" x1="228" y1="117.5" x2="291" y2="277" gradientUnits="userSpaceOnUse">
<stop stop-color="#51C0FF"/>
<stop offset="1" stop-color="#1DCB8C"/>
</linearGradient>
</defs>
</svg>
